<svg width="800" height="200" viewBox="0 0 800 200" fill="none" xmlns="http://www.w3.org/2000/svg">
  <rect width="800" height="200" rx="28" fill="#F6E2BE"/>
  <path d="M95 42L106 72H138L112 90L122 120L95 101L68 120L78 90L52 72H84L95 42Z" fill="#8B4327"/>
  <path d="M264 44C287 44 306 63 306 86V117C306 140 287 159 264 159C241 159 222 140 222 117V86C222 63 241 44 264 44ZM264 68C254 68 246 76 246 86V117C246 127 254 135 264 135C274 135 282 127 282 117V86C282 76 274 68 264 68Z" fill="#8B4327"/>
  <path d="M264 32C272 32 278 38 278 46V58H250V46C250 38 256 32 264 32Z" fill="#8B4327"/>
  <path d="M435 50C448 50 458 60 458 73V112H473C486 112 496 122 496 135C496 148 486 158 473 158H458V175C458 188 448 198 435 198C422 198 412 188 412 175V73C412 60 422 50 435 50Z" fill="#2E5A44"/>
  <path d="M435 112H396C383 112 373 102 373 89C373 76 383 66 396 66H435V112Z" fill="#2E5A44"/>
  <path d="M435 153H388C375 153 365 143 365 130C365 117 375 107 388 107H435V153Z" fill="#2E5A44"/>
  <path d="M631 58L642 84L670 86L648 104L655 132L631 118L607 132L614 104L592 86L620 84L631 58Z" fill="#8B4327"/>
  <circle cx="631" cy="95" r="14" fill="#F6E2BE"/>
  <path d="M723 64L739 95L773 99L748 123L754 157L723 142L692 157L698 123L673 99L707 95L723 64Z" fill="#D28438"/>
</svg>

