<svg width="280" height="280" viewBox="0 0 280 280" fill="none" xmlns="http://www.w3.org/2000/svg">
  <rect width="280" height="280" rx="36" fill="#F2D3A3"/>
  <path d="M47 178C63 178 75 190 75 206V259H19V206C19 190 31 178 47 178Z" fill="#244337"/>
  <path d="M47 120C63 120 75 132 75 148V205H19V148C19 132 31 120 47 120Z" fill="#244337"/>
  <path d="M102 149H47V177H102C110 177 117 170 117 163C117 156 110 149 102 149Z" fill="#244337"/>
  <path d="M105 205H47V233H105C113 233 120 226 120 219C120 212 113 205 105 205Z" fill="#244337"/>
  <path d="M175 45L186 75H218L192 93L201 122L175 104L149 122L158 93L132 75H164L175 45Z" fill="#A44F29"/>
  <path d="M209 158C226 158 240 172 240 189V214C240 231 226 245 209 245C192 245 178 231 178 214V189C178 172 192 158 209 158ZM209 179C204 179 199 184 199 189V214C199 219 204 224 209 224C214 224 219 219 219 214V189C219 184 214 179 209 179Z" fill="#A44F29"/>
  <path d="M209 146C214 146 218 150 218 155V164H200V155C200 150 204 146 209 146Z" fill="#A44F29"/>
</svg>
