<svg width="1200" height="900" viewBox="0 0 1200 900" fill="none" xmlns="http://www.w3.org/2000/svg">
  <rect width="1200" height="900" rx="48" fill="#EFD2A5"/>
  <circle cx="920" cy="210" r="110" fill="#F2A03D"/>
  <path d="M0 614C134 531 250 540 358 585C470 632 570 652 706 602C825 558 949 486 1200 535V900H0V614Z" fill="#C16C3F"/>
  <path d="M0 688C117 656 219 671 330 711C439 752 582 767 700 724C852 669 995 626 1200 692V900H0V688Z" fill="#9C4E2F"/>
  <path d="M166 438C185 438 199 452 199 471V535H223C242 535 256 549 256 568C256 587 242 601 223 601H199V720C199 739 185 753 166 753C147 753 133 739 133 720V471C133 452 147 438 166 438Z" fill="#234438"/>
  <path d="M166 535H108C89 535 75 521 75 502C75 483 89 469 108 469H166V535Z" fill="#234438"/>
  <path d="M166 647H95C76 647 62 633 62 614C62 595 76 581 95 581H166V647Z" fill="#234438"/>
  <path d="M1034 486C1053 486 1067 500 1067 519V583H1091C1110 583 1124 597 1124 616C1124 635 1110 649 1091 649H1067V744C1067 763 1053 777 1034 777C1015 777 1001 763 1001 744V519C1001 500 1015 486 1034 486Z" fill="#1E3C31"/>
  <path d="M1034 583H977C958 583 944 569 944 550C944 531 958 517 977 517H1034V583Z" fill="#1E3C31"/>
  <path d="M1034 695H964C945 695 931 681 931 662C931 643 945 629 964 629H1034V695Z" fill="#1E3C31"/>
  <path d="M469 355L551 271L623 350L697 309L769 424" stroke="#6E3520" stroke-width="28" stroke-linecap="round" stroke-linejoin="round"/>
  <path d="M464 409L477 758" stroke="#6E3520" stroke-width="28" stroke-linecap="round"/>
  <path d="M760 426L770 756" stroke="#6E3520" stroke-width="28" stroke-linecap="round"/>
  <path d="M492 507C564 554 641 575 735 563" stroke="#6E3520" stroke-width="24" stroke-linecap="round"/>
</svg>

