<svg width="900" height="700" viewBox="0 0 900 700" fill="none" xmlns="http://www.w3.org/2000/svg">
  <rect width="900" height="700" rx="36" fill="#F7E4BF"/>
  <path d="M77 623H823V675H77V623Z" fill="#6F3925"/>
  <path d="M133 620V274H767V620" fill="#B96B41"/>
  <path d="M178 256L222 131H678L724 256" fill="#8E4E2E"/>
  <path d="M155 249H745V292H155V249Z" fill="#6C3725"/>
  <path d="M198 212H702V247H198V212Z" fill="#F8D18A"/>
  <path d="M333 349H568V620H333V349Z" fill="#6E3520"/>
  <rect x="187" y="353" width="100" height="92" rx="10" fill="#EBCB98"/>
  <rect x="614" y="353" width="100" height="92" rx="10" fill="#EBCB98"/>
  <rect x="187" y="484" width="100" height="92" rx="10" fill="#EBCB98"/>
  <rect x="614" y="484" width="100" height="92" rx="10" fill="#EBCB98"/>
  <path d="M377 214H525V246H377V214Z" fill="#6E3520"/>
  <text x="451" y="236" fill="#F7E4BF" font-size="34" font-family="Georgia, serif" text-anchor="middle">WESTERN</text>
  <circle cx="452" cy="489" r="16" fill="#E6A44B"/>
</svg>
